grf
version=1
nRows=7
nColumns=37
inDegrees=no
endheader
time	ground_force_1_vx	ground_force_1_vy	ground_force_1_vz	ground_force_1_px	ground_force_1_py	ground_force_1_pz	ground_moment_1_mx	ground_moment_1_my	ground_moment_1_mz	ground_force_2_vx	ground_force_2_vy	ground_force_2_vz	ground_force_2_px	ground_force_2_py	ground_force_2_pz	ground_moment_2_mx	ground_moment_2_my	ground_moment_2_mz	ground_force_3_vx	ground_force_3_vy	ground_force_3_vz	ground_force_3_px	ground_force_3_py	ground_force_3_pz	ground_moment_3_mx	ground_moment_3_my	ground_moment_3_mz	ground_force_4_vx	ground_force_4_vy	ground_force_4_vz	ground_force_4_px	ground_force_4_py	ground_force_4_pz	ground_moment_4_mx	ground_moment_4_my	ground_moment_4_mz
      5.13000000	      0.00000000	     -0.00000000	      0.00000000	      0.00000000	      0.00000000	      0.00000000	      0.00000000	      0.00000000	      0.00000000	     -3.85839391	     32.62916946	   -357.80014038	   -267.70930764	  -1099.76009892	      0.00000000	      0.00000000	      0.00000000	    331.61938469	      1.30829412	    -45.68458187	   -391.07913208	   -257.67660896	   -675.17230331	      0.00000000	      0.00000000	      0.00000000	    711.16883221	      0.00000000	     -0.00000000	      0.00000000	      0.00000000	      0.00000000	      0.00000000	      0.00000000	      0.00000000	      0.00000000
      5.14000000	      0.00000000	     -0.00000000	      0.00000000	      0.00000000	      0.00000000	      0.00000000	      0.00000000	      0.00000000	      0.00000000	     -3.65763092	     32.07956696	   -354.12011719	   -272.40472231	  -1097.03689272	      0.00000000	      0.00000000	      0.00000000	    174.46016013	      1.32326710	    -45.06613552	   -391.42807007	   -259.60631615	   -677.34383658	      0.00000000	      0.00000000	      0.00000000	    710.58723324	      0.00000000	     -0.00000000	      0.00000000	      0.00000000	      0.00000000	      0.00000000	      0.00000000	      0.00000000	      0.00000000
      5.15000000	      0.00000000	     -0.00000000	      0.00000000	      0.00000000	      0.00000000	      0.00000000	      0.00000000	      0.00000000	      0.00000000	     -2.84742856	     31.54486084	   -355.97644043	   -275.12430564	  -1096.88359551	      0.00000000	      0.00000000	      0.00000000	    206.90875316	      1.04257817	    -44.21183023	   -391.48535156	   -262.67401546	   -677.99147205	      0.00000000	     -0.00000000	     -0.00000000	    499.60194137	      0.00000000	     -0.00000000	      0.00000000	      0.00000000	      0.00000000	      0.00000000	      0.00000000	      0.00000000	      0.00000000
      5.16000000	      0.00000000	     -0.00000000	      0.00000000	      0.00000000	      0.00000000	      0.00000000	      0.00000000	      0.00000000	      0.00000000	     -1.76972294	     30.68980598	   -355.62353516	   -279.27040423	  -1095.92120327	      0.00000000	      0.00000000	      0.00000000	    237.03797304	      0.36209135	    -43.80755618	   -391.16397095	   -264.25186657	   -678.72425726	      0.00000000	      0.00000000	      0.00000000	    607.24248262	      0.00000000	     -0.00000000	      0.00000000	      0.00000000	      0.00000000	      0.00000000	      0.00000000	      0.00000000	      0.00000000
      5.17000000	      0.00000000	     -0.00000000	      0.00000000	      0.00000000	      0.00000000	      0.00000000	      0.00000000	      0.00000000	      0.00000000	     -0.61729044	     30.23673630	   -358.80236816	   -282.05568043	  -1095.76454432	      0.00000000	      0.00000000	     -0.00000000	    199.49348452	     -0.11029027	    -43.42562865	   -391.71981812	   -266.03898634	   -679.72193342	      0.00000000	      0.00000000	      0.00000000	    651.19808024	      0.00000000	     -0.00000000	      0.00000000	      0.00000000	      0.00000000	      0.00000000	      0.00000000	      0.00000000	      0.00000000
      5.18000000	      0.00000000	     -0.00000000	      0.00000000	      0.00000000	      0.00000000	      0.00000000	      0.00000000	      0.00000000	      0.00000000	      0.18552878	     30.32563972	   -359.29656982	   -285.57145165	  -1093.89443263	      0.00000000	      0.00000000	      0.00000000	    107.27165367	      0.09582393	    -43.05846787	   -393.22875977	   -268.63062686	   -681.56392448	      0.00000000	      0.00000000	      0.00000000	    694.71424179	      0.00000000	     -0.00000000	      0.00000000	      0.00000000	      0.00000000	      0.00000000	      0.00000000	      0.00000000	      0.00000000
      5.19000000	      0.00000000	     -0.00000000	      0.00000000	      0.00000000	      0.00000000	      0.00000000	      0.00000000	      0.00000000	      0.00000000	      0.37092897	     30.25039101	   -362.27896118	   -289.16408367	  -1093.92013896	      0.00000000	      0.00000000	      0.00000000	    172.20126887	      1.22078838	    -42.06921016	   -393.08920288	   -270.14834299	   -683.14609328	      0.00000000	      0.00000000	      0.00000000	    555.53350718	      0.00000000	     -0.00000000	      0.00000000	      0.00000000	      0.00000000	      0.00000000	      0.00000000	      0.00000000	      0.00000000
